<svg width="20" height="20" viewBox="0 0 20 20" fill="none" xmlns="http://www.w3.org/2000/svg">
<path d="M17.5 10.8333H15.8333C15.5972 10.8333 15.3994 10.7533 15.24 10.5933C15.0806 10.4333 15.0006 10.2355 15 9.99995C14.9994 9.76439 15.0794 9.56661 15.24 9.40661C15.4006 9.24661 15.5983 9.16661 15.8333 9.16661H17.5C17.7361 9.16661 17.9342 9.24661 18.0942 9.40661C18.2542 9.56661 18.3339 9.76439 18.3333 9.99995C18.3328 10.2355 18.2528 10.4336 18.0933 10.5941C17.9339 10.7547 17.7361 10.8344 17.5 10.8333ZM13.8333 13.9999C13.9722 13.8055 14.1528 13.6944 14.375 13.6666C14.5972 13.6388 14.8056 13.6944 15 13.8333L16.3333 14.8333C16.5278 14.9722 16.6389 15.1527 16.6667 15.3749C16.6944 15.5972 16.6389 15.8055 16.5 15.9999C16.3611 16.1944 16.1806 16.3055 15.9583 16.3333C15.7361 16.3611 15.5278 16.3055 15.3333 16.1666L14 15.1666C13.8056 15.0277 13.6944 14.8472 13.6667 14.6249C13.6389 14.4027 13.6944 14.1944 13.8333 13.9999ZM16.3333 5.16661L15 6.16661C14.8056 6.3055 14.5972 6.36106 14.375 6.33328C14.1528 6.3055 13.9722 6.19439 13.8333 5.99995C13.6944 5.8055 13.6389 5.59717 13.6667 5.37495C13.6944 5.15272 13.8056 4.97217 14 4.83328L15.3333 3.83328C15.5278 3.69439 15.7361 3.63883 15.9583 3.66661C16.1806 3.69439 16.3611 3.8055 16.5 3.99995C16.6389 4.19439 16.6944 4.40272 16.6667 4.62495C16.6389 4.84717 16.5278 5.02772 16.3333 5.16661ZM4.16667 12.4999H3.33333C2.875 12.4999 2.48278 12.3369 2.15667 12.0108C1.83056 11.6847 1.66722 11.2922 1.66667 10.8333V9.16661C1.66667 8.70828 1.83 8.31606 2.15667 7.98995C2.48333 7.66383 2.87556 7.5005 3.33333 7.49995H6.66667L9.5625 5.74995C9.84028 5.58328 10.1217 5.58328 10.4067 5.74995C10.6917 5.91661 10.8339 6.15967 10.8333 6.47911V13.5208C10.8333 13.8402 10.6908 14.0833 10.4058 14.2499C10.1208 14.4166 9.83972 14.4166 9.5625 14.2499L6.66667 12.4999H5.83333V14.9999C5.83333 15.2361 5.75333 15.4341 5.59333 15.5941C5.43333 15.7541 5.23556 15.8338 5 15.8333C4.76445 15.8327 4.56667 15.7527 4.40667 15.5933C4.24667 15.4338 4.16667 15.2361 4.16667 14.9999V12.4999ZM9.16667 12.0416V7.95828L7.125 9.16661H3.33333V10.8333H7.125L9.16667 12.0416ZM11.6667 12.7916V7.20828C12.0417 7.54161 12.3439 7.948 12.5733 8.42745C12.8028 8.90689 12.9172 9.43106 12.9167 9.99995C12.9161 10.5688 12.8014 11.0933 12.5725 11.5733C12.3436 12.0533 12.0417 12.4594 11.6667 12.7916Z" fill="#101820"/>
</svg>
