<svg width="20" height="20" viewBox="0 0 20 20" fill="none" xmlns="http://www.w3.org/2000/svg">
<path d="M10 9.99992C9.08334 9.99992 8.29862 9.67353 7.64584 9.02075C6.99307 8.36797 6.66668 7.58325 6.66668 6.66659C6.66668 5.74992 6.99307 4.9652 7.64584 4.31242C8.29862 3.65964 9.08334 3.33325 10 3.33325C10.9167 3.33325 11.7014 3.65964 12.3542 4.31242C13.007 4.9652 13.3333 5.74992 13.3333 6.66659C13.3333 7.58325 13.007 8.36797 12.3542 9.02075C11.7014 9.67353 10.9167 9.99992 10 9.99992ZM3.33334 14.9999V14.3333C3.33334 13.861 3.45501 13.4271 3.69834 13.0316C3.94168 12.636 4.26445 12.3338 4.66668 12.1249C5.52779 11.6944 6.40279 11.3716 7.29168 11.1566C8.18057 10.9416 9.08334 10.8338 10 10.8333C10.9167 10.8327 11.8195 10.9405 12.7083 11.1566C13.5972 11.3727 14.4722 11.6955 15.3333 12.1249C15.7361 12.3333 16.0592 12.6355 16.3025 13.0316C16.5458 13.4277 16.6672 13.8616 16.6667 14.3333V14.9999C16.6667 15.4583 16.5036 15.8508 16.1775 16.1774C15.8514 16.5041 15.4589 16.6671 15 16.6666H5.00001C4.54168 16.6666 4.14945 16.5035 3.82334 16.1774C3.49723 15.8513 3.3339 15.4588 3.33334 14.9999ZM5.00001 14.9999H15V14.3333C15 14.1805 14.962 14.0416 14.8858 13.9166C14.8097 13.7916 14.7089 13.6944 14.5833 13.6249C13.8333 13.2499 13.0764 12.9688 12.3125 12.7816C11.5486 12.5944 10.7778 12.5005 10 12.4999C9.22223 12.4994 8.4514 12.5933 7.68751 12.7816C6.92362 12.9699 6.16668 13.251 5.41668 13.6249C5.29168 13.6944 5.19084 13.7916 5.11418 13.9166C5.03751 14.0416 4.99945 14.1805 5.00001 14.3333V14.9999ZM10 8.33325C10.4583 8.33325 10.8508 8.1702 11.1775 7.84409C11.5042 7.51797 11.6672 7.12547 11.6667 6.66659C11.6661 6.2077 11.5031 5.81547 11.1775 5.48992C10.852 5.16436 10.4595 5.00103 10 4.99992C9.54057 4.99881 9.14834 5.16214 8.82334 5.48992C8.49834 5.8177 8.33501 6.20992 8.33334 6.66659C8.33168 7.12325 8.49501 7.51575 8.82334 7.84409C9.15168 8.17242 9.5439 8.33547 10 8.33325Z" fill="white" fill-opacity="0.6"/>
</svg>
