<svg width="32" height="32" viewBox="0 0 32 32" fill="none" xmlns="http://www.w3.org/2000/svg">
<path d="M2 7V24H30V7H2ZM6 9H26C26 9.53043 26.2107 10.0391 26.5858 10.4142C26.9609 10.7893 27.4696 11 28 11V20C27.4696 20 26.9609 20.2107 26.5858 20.5858C26.2107 20.9609 26 21.4696 26 22H6C6 21.4696 5.78929 20.9609 5.41421 20.5858C5.03914 20.2107 4.53043 20 4 20V11C4.53043 11 5.03914 10.7893 5.41421 10.4142C5.78929 10.0391 6 9.53043 6 9ZM15 11C15 12.439 14.439 13 13 13V15C13.776 15 14.437 14.849 15 14.588V20H17V11H15ZM8.5 14C8.30295 14.0001 8.10785 14.0389 7.92582 14.1144C7.7438 14.1899 7.57842 14.3005 7.43913 14.4398C7.29984 14.5792 7.18937 14.7447 7.11403 14.9267C7.03868 15.1088 6.99993 15.304 7 15.501C7.00007 15.698 7.03894 15.8932 7.11441 16.0752C7.18988 16.2572 7.30046 16.4226 7.43984 16.5619C7.57922 16.7012 7.74467 16.8116 7.92675 16.887C8.10882 16.9623 8.30395 17.0011 8.501 17.001C8.89896 17.0009 9.28056 16.8427 9.56187 16.5612C9.84317 16.2797 10.0011 15.898 10.001 15.5C10.0009 15.102 9.84265 14.7204 9.56116 14.4391C9.27967 14.1578 8.89796 13.9999 8.5 14ZM23.5 14C23.303 14.0001 23.1078 14.0389 22.9258 14.1144C22.7438 14.1899 22.5784 14.3005 22.4391 14.4398C22.2998 14.5792 22.1894 14.7447 22.114 14.9267C22.0387 15.1088 21.9999 15.304 22 15.501C22.0001 15.698 22.0389 15.8932 22.1144 16.0752C22.1899 16.2572 22.3005 16.4226 22.4398 16.5619C22.5792 16.7012 22.7447 16.8116 22.9267 16.887C23.1088 16.9623 23.304 17.0011 23.501 17.001C23.899 17.0009 24.2806 16.8427 24.5619 16.5612C24.8432 16.2797 25.0011 15.898 25.001 15.5C25.0009 15.102 24.8427 14.7204 24.5612 14.4391C24.2797 14.1578 23.898 13.9999 23.5 14Z" fill="#F1B80C"/>
</svg>
