<svg xmlns="http://www.w3.org/2000/svg" width="48" height="48" viewBox="0 0 26 26"><g fill="#dfd16f"><path d="M26 14c0 6.627-5.373 12-12 12S2 20.627 2 14S7.373 2 14 2s12 5.373 12 12" opacity="0"/><g fill-rule="evenodd" clip-rule="evenodd"><path d="M8.604 8.45a6.44 6.44 0 0 0-1.882 5.278a.5.5 0 0 1-.995.105a7.44 7.44 0 0 1 2.175-6.096c2.937-2.897 7.675-2.85 10.582.098s2.888 7.685-.05 10.582a7.43 7.43 0 0 1-5.097 2.142a7.5 7.5 0 0 1-2.14-.271a.5.5 0 0 1 .266-.964a6.5 6.5 0 0 0 1.856.235a6.42 6.42 0 0 0 4.413-1.854c2.541-2.506 2.562-6.61.04-9.168s-6.627-2.594-9.168-.088"/><path d="M6.594 14.363a.5.5 0 0 1-.706.04l-1.72-1.53a.5.5 0 1 1 .664-.746l1.72 1.53a.5.5 0 0 1 .042.706"/><path d="M5.82 14.3a.5.5 0 0 0 .7.1l2-1.5a.5.5 0 1 0-.6-.8l-2 1.5a.5.5 0 0 0-.1.7M13 9.5a.5.5 0 0 1 .5.5v3.5a.5.5 0 0 1-1 0V10a.5.5 0 0 1 .5-.5"/><path d="M16.5 13.5a.5.5 0 0 1-.5.5h-3a.5.5 0 0 1 0-1h3a.5.5 0 0 1 .5.5"/></g><path fill-rule="evenodd" d="M13 24.5c6.351 0 11.5-5.149 11.5-11.5S19.351 1.5 13 1.5S1.5 6.649 1.5 13S6.649 24.5 13 24.5m0 1c6.904 0 12.5-5.596 12.5-12.5S19.904.5 13 .5S.5 6.096.5 13S6.096 25.5 13 25.5" clip-rule="evenodd"/></g></svg>