<svg width="32" height="32" viewBox="0 0 32 32" fill="none" xmlns="http://www.w3.org/2000/svg">
<path d="M18.2466 7H18.2866C18.5519 7 18.8062 7.10536 18.9937 7.29289C19.1813 7.48043 19.2866 7.73478 19.2866 8C19.2866 8.26522 19.1813 8.51957 18.9937 8.70711C18.8062 8.89464 18.5519 9 18.2866 9C16.564 9 15.2533 9 14.2093 9.084C13.1626 9.168 12.4986 9.328 12.028 9.57867C11.0531 10.107 10.2704 10.9303 9.79197 11.9307C9.53864 12.456 9.38664 13.104 9.30797 14.1147C9.22797 15.1333 9.22797 16.432 9.22797 18.24V18.3867L10.7213 16.8933C10.9109 16.7167 11.1616 16.6205 11.4207 16.6251C11.6797 16.6297 11.9269 16.7346 12.1101 16.9178C12.2934 17.1011 12.3983 17.3482 12.4029 17.6073C12.4074 17.8664 12.3113 18.1171 12.1346 18.3067L8.93464 21.5067C8.83883 21.6024 8.72457 21.6777 8.59879 21.7279C8.47301 21.7782 8.33833 21.8024 8.20292 21.799C8.06752 21.7956 7.93421 21.7648 7.81108 21.7084C7.68795 21.6519 7.57757 21.5711 7.48664 21.4707L4.59197 18.2707C4.42188 18.0729 4.33581 17.8165 4.35212 17.5561C4.36843 17.2957 4.48583 17.0521 4.67928 16.8771C4.87273 16.7021 5.12691 16.6096 5.38759 16.6193C5.64828 16.6291 5.89483 16.7403 6.07464 16.9293L7.22797 18.204V18.1973C7.22797 16.4413 7.22797 15.064 7.31464 13.9587C7.40264 12.8333 7.58397 11.9027 7.99331 11.0573C8.65616 9.67772 9.73846 8.54315 11.0853 7.816C11.9186 7.36933 12.912 7.18133 14.0506 7.09067C15.184 7 16.572 7 18.2466 7ZM23.796 10.2C23.9316 10.2034 24.0652 10.2343 24.1885 10.2909C24.3118 10.3475 24.4223 10.4286 24.5133 10.5293L27.408 13.7293C27.5781 13.9271 27.6641 14.1835 27.6478 14.4439C27.6315 14.7043 27.5141 14.9479 27.3207 15.1229C27.1272 15.2979 26.873 15.3904 26.6124 15.3807C26.3517 15.3709 26.1051 15.2597 25.9253 15.0707L24.772 13.796V13.8027C24.772 15.5587 24.772 16.936 24.6853 18.0413C24.5973 19.1667 24.4173 20.0973 24.0066 20.9427C23.3438 22.3223 22.2615 23.4569 20.9146 24.184C20.0813 24.6307 19.088 24.8187 17.9493 24.9093C16.816 25 15.428 25 13.7546 25H13.7146C13.4494 25 13.1951 24.8946 13.0075 24.7071C12.82 24.5196 12.7146 24.2652 12.7146 24C12.7146 23.7348 12.82 23.4804 13.0075 23.2929C13.1951 23.1054 13.4494 23 13.7146 23C15.436 23 16.7466 23 17.7906 22.916C18.8373 22.832 19.5013 22.672 19.972 22.42C20.9466 21.892 21.7293 21.0692 22.208 20.0693C22.4613 19.544 22.6133 18.896 22.692 17.8853C22.772 16.8667 22.772 15.568 22.772 13.76V13.6133L21.2786 15.1067C21.0891 15.2833 20.8383 15.3795 20.5793 15.3749C20.3202 15.3703 20.073 15.2654 19.8898 15.0822C19.7066 14.8989 19.6016 14.6518 19.5971 14.3927C19.5925 14.1336 19.6887 13.8829 19.8653 13.6933L23.0653 10.4933C23.1609 10.3975 23.275 10.3222 23.4006 10.2717C23.5261 10.2213 23.6607 10.1969 23.796 10.2Z" fill="#F1B80C"/>
</svg>
